# Blender v3.1.2 OBJ File: ''
# www.blender.org
mtllib frame.mtl
o cube.000
v 0.312500 0.125000 -0.312500
v -0.312500 0.125000 -0.312500
v -0.312500 0.750000 -0.312500
v 0.312500 0.750000 -0.312500
v 0.312500 0.125000 0.312500
v 0.312500 0.750000 0.312500
v -0.312500 0.125000 0.312500
v -0.312500 0.750000 0.312500
vt 0.218750 0.843750
vt 0.375000 0.843750
vt 0.375000 1.000000
vt 0.218750 1.000000
vt 0.375000 0.843750
vt 0.531250 0.843750
vt 0.531250 1.000000
vt 0.375000 1.000000
vt 0.218750 0.843750
vt 0.218750 1.000000
vt 0.531250 0.843750
vt 0.531250 1.000000
vt 0.531250 0.843750
vt 0.375000 0.843750
vt 0.375000 0.687500
vt 0.531250 0.687500
vt 0.531250 0.687500
vt 0.375000 0.687500
vn 0.0000 0.0000 -1.0000
vn 1.0000 0.0000 0.0000
vn 0.0000 -0.0000 1.0000
vn -1.0000 0.0000 0.0000
vn 0.0000 1.0000 0.0000
vn 0.0000 -1.0000 -0.0000
usemtl m_97bf9111-6c45-be8c-f56e-719d5164e6e5
s 1
f 1/1/1 2/2/1 3/3/1 4/4/1
f 5/5/2 1/6/2 4/7/2 6/8/2
f 7/9/3 5/5/3 6/8/3 8/10/3
f 2/2/4 7/11/4 8/12/4 3/3/4
f 8/13/5 6/14/5 4/15/5 3/16/5
f 2/17/6 1/18/6 5/5/6 7/11/6
o cube.001
v -0.375000 0.187500 -0.250000
v -0.750000 0.187500 -0.250000
v -0.750000 0.687500 -0.250000
v -0.375000 0.687500 -0.250000
v -0.375000 0.187500 0.250000
v -0.375000 0.687500 0.250000
v -0.750000 0.187500 0.250000
v -0.750000 0.687500 0.250000
vt 0.000000 0.312500
vt 0.093750 0.312500
vt 0.093750 0.437500
vt 0.000000 0.437500
vt 0.390625 0.859375
vt 0.515625 0.859375
vt 0.515625 0.984375
vt 0.390625 0.984375
vt 0.000000 0.312500
vt 0.093750 0.312500
vt 0.093750 0.437500
vt 0.000000 0.437500
vt 0.390625 0.859375
vt 0.515625 0.859375
vt 0.515625 0.984375
vt 0.390625 0.984375
vt 0.093750 0.437500
vt 0.000000 0.437500
vt 0.000000 0.312500
vt 0.093750 0.312500
vt 0.000000 0.437500
vt 0.093750 0.437500
vn 0.0000 0.0000 -1.0000
vn 1.0000 0.0000 0.0000
vn 0.0000 -0.0000 1.0000
vn -1.0000 0.0000 0.0000
vn 0.0000 1.0000 0.0000
vn 0.0000 -1.0000 -0.0000
usemtl m_97bf9111-6c45-be8c-f56e-719d5164e6e5
s 1
f 9/19/7 10/20/7 11/21/7 12/22/7
f 13/23/8 9/24/8 12/25/8 14/26/8
f 15/27/9 13/28/9 14/29/9 16/30/9
f 10/31/10 15/32/10 16/33/10 11/34/10
f 16/35/11 14/36/11 12/37/11 11/38/11
f 10/20/12 9/19/12 13/39/12 15/40/12
o cube.002
v -0.504104 0.538452 -0.125000
v -0.735074 0.634123 -0.125000
v -0.471979 1.269290 -0.125000
v -0.241009 1.173619 -0.125000
v -0.504104 0.538452 0.125000
v -0.241009 1.173619 0.125000
v -0.735074 0.634123 0.125000
v -0.471979 1.269290 0.125000
vt 0.625000 0.828125
vt 0.687500 0.828125
vt 0.687500 1.000000
vt 0.625000 1.000000
vt 0.625000 0.828125
vt 0.687500 0.828125
vt 0.687500 1.000000
vt 0.625000 1.000000
vt 0.625000 0.828125
vt 0.687500 0.828125
vt 0.687500 1.000000
vt 0.625000 1.000000
vt 0.625000 0.828125
vt 0.687500 0.828125
vt 0.687500 1.000000
vt 0.625000 1.000000
vt 0.156250 0.281250
vt 0.093750 0.281250
vt 0.093750 0.218750
vt 0.156250 0.218750
vt 0.156250 0.218750
vt 0.093750 0.218750
vt 0.093750 0.281250
vt 0.156250 0.281250
vn 0.0000 0.0000 -1.0000
vn 0.9239 -0.3827 0.0000
vn -0.0000 -0.0000 1.0000
vn -0.9239 0.3827 0.0000
vn 0.3827 0.9239 0.0000
vn -0.3827 -0.9239 0.0000
usemtl m_97bf9111-6c45-be8c-f56e-719d5164e6e5
s 1
f 17/41/13 18/42/13 19/43/13 20/44/13
f 21/45/14 17/46/14 20/47/14 22/48/14
f 23/49/15 21/50/15 22/51/15 24/52/15
f 18/53/16 23/54/16 24/55/16 19/56/16
f 24/57/17 22/58/17 20/59/17 19/60/17
f 18/61/18 17/62/18 21/63/18 23/64/18
o cube.003
v 0.747032 0.636502 -0.125000
v 0.516062 0.540831 -0.125000
v 0.252968 1.175998 -0.125000
v 0.483938 1.271669 -0.125000
v 0.747032 0.636502 0.125000
v 0.483938 1.271669 0.125000
v 0.516062 0.540831 0.125000
v 0.252968 1.175998 0.125000
vt 0.625000 0.828125
vt 0.687500 0.828125
vt 0.687500 1.000000
vt 0.625000 1.000000
vt 0.625000 0.828125
vt 0.687500 0.828125
vt 0.687500 1.000000
vt 0.625000 1.000000
vt 0.625000 0.828125
vt 0.687500 0.828125
vt 0.687500 1.000000
vt 0.625000 1.000000
vt 0.625000 0.828125
vt 0.687500 0.828125
vt 0.687500 1.000000
vt 0.625000 1.000000
vt 0.156250 0.281250
vt 0.093750 0.281250
vt 0.093750 0.218750
vt 0.156250 0.218750
vt 0.156250 0.218750
vt 0.093750 0.218750
vt 0.093750 0.281250
vt 0.156250 0.281250
vn -0.0000 0.0000 -1.0000
vn 0.9239 0.3827 0.0000
vn 0.0000 -0.0000 1.0000
vn -0.9239 -0.3827 0.0000
vn -0.3827 0.9239 0.0000
vn 0.3827 -0.9239 0.0000
usemtl m_97bf9111-6c45-be8c-f56e-719d5164e6e5
s 1
f 25/65/19 26/66/19 27/67/19 28/68/19
f 29/69/20 25/70/20 28/71/20 30/72/20
f 31/73/21 29/74/21 30/75/21 32/76/21
f 26/77/22 31/78/22 32/79/22 27/80/22
f 32/81/23 30/82/23 28/83/23 27/84/23
f 26/85/24 25/86/24 29/87/24 31/88/24
o cube.004
v 0.750000 0.187500 -0.250000
v 0.375000 0.187500 -0.250000
v 0.375000 0.687500 -0.250000
v 0.750000 0.687500 -0.250000
v 0.750000 0.187500 0.250000
v 0.750000 0.687500 0.250000
v 0.375000 0.187500 0.250000
v 0.375000 0.687500 0.250000
vt 0.000000 0.312500
vt 0.093750 0.312500
vt 0.093750 0.437500
vt 0.000000 0.437500
vt 0.390625 0.859375
vt 0.515625 0.859375
vt 0.515625 0.984375
vt 0.390625 0.984375
vt 0.000000 0.312500
vt 0.093750 0.312500
vt 0.093750 0.437500
vt 0.000000 0.437500
vt 0.390625 0.859375
vt 0.515625 0.859375
vt 0.515625 0.984375
vt 0.390625 0.984375
vt 0.093750 0.437500
vt 0.000000 0.437500
vt 0.000000 0.312500
vt 0.093750 0.312500
vt 0.000000 0.437500
vt 0.093750 0.437500
vn 0.0000 0.0000 -1.0000
vn 1.0000 0.0000 0.0000
vn 0.0000 -0.0000 1.0000
vn -1.0000 0.0000 0.0000
vn 0.0000 1.0000 0.0000
vn 0.0000 -1.0000 -0.0000
usemtl m_97bf9111-6c45-be8c-f56e-719d5164e6e5
s 1
f 33/89/25 34/90/25 35/91/25 36/92/25
f 37/93/26 33/94/26 36/95/26 38/96/26
f 39/97/27 37/98/27 38/99/27 40/100/27
f 34/101/28 39/102/28 40/103/28 35/104/28
f 40/105/29 38/106/29 36/107/29 35/108/29
f 34/90/30 33/89/30 37/109/30 39/110/30
o cube.005
v 0.187500 0.750000 -0.187500
v -0.187500 0.750000 -0.187500
v -0.187500 1.062500 -0.187500
v 0.187500 1.062500 -0.187500
v 0.187500 0.750000 0.187500
v 0.187500 1.062500 0.187500
v -0.187500 0.750000 0.187500
v -0.187500 1.062500 0.187500
vt 0.000000 0.234375
vt 0.093750 0.234375
vt 0.093750 0.312500
vt 0.000000 0.312500
vt 0.000000 0.234375
vt 0.093750 0.234375
vt 0.093750 0.312500
vt 0.000000 0.312500
vt 0.000000 0.234375
vt 0.093750 0.234375
vt 0.093750 0.312500
vt 0.000000 0.312500
vt 0.000000 0.234375
vt 0.093750 0.234375
vt 0.093750 0.312500
vt 0.000000 0.312500
vt 0.750000 0.484375
vt 0.656250 0.484375
vt 0.656250 0.390625
vt 0.750000 0.390625
vt 0.750000 0.296875
vt 0.656250 0.296875
vt 0.656250 0.390625
vt 0.750000 0.390625
vn 0.0000 0.0000 -1.0000
vn 1.0000 0.0000 0.0000
vn 0.0000 -0.0000 1.0000
vn -1.0000 0.0000 0.0000
vn 0.0000 1.0000 0.0000
vn 0.0000 -1.0000 -0.0000
usemtl m_97bf9111-6c45-be8c-f56e-719d5164e6e5
s 1
f 41/111/31 42/112/31 43/113/31 44/114/31
f 45/115/32 41/116/32 44/117/32 46/118/32
f 47/119/33 45/120/33 46/121/33 48/122/33
f 42/123/34 47/124/34 48/125/34 43/126/34
f 48/127/35 46/128/35 44/129/35 43/130/35
f 42/131/36 41/132/36 45/133/36 47/134/36
o cube.006
v 0.437500 1.062500 -0.437500
v -0.437500 1.062500 -0.437500
v -0.437500 1.187500 -0.437500
v 0.437500 1.187500 -0.437500
v 0.437500 1.062500 0.437500
v 0.437500 1.187500 0.437500
v -0.437500 1.062500 0.437500
v -0.437500 1.187500 0.437500
vt 0.687500 0.968750
vt 0.906250 0.968750
vt 0.906250 1.000000
vt 0.687500 1.000000
vt 0.687500 0.968750
vt 0.906250 0.968750
vt 0.906250 1.000000
vt 0.687500 1.000000
vt 0.687500 0.968750
vt 0.906250 0.968750
vt 0.906250 1.000000
vt 0.687500 1.000000
vt 0.687500 0.968750
vt 0.906250 0.968750
vt 0.906250 1.000000
vt 0.687500 1.000000
vt 0.218750 1.000000
vt 0.000000 1.000000
vt 0.000000 0.781250
vt 0.218750 0.781250
vt 0.218750 0.781250
vt 0.000000 0.781250
vt 0.000000 1.000000
vt 0.218750 1.000000
vn 0.0000 0.0000 -1.0000
vn 1.0000 0.0000 0.0000
vn 0.0000 0.0000 1.0000
vn -1.0000 0.0000 0.0000
vn 0.0000 1.0000 0.0000
vn 0.0000 -1.0000 -0.0000
usemtl m_97bf9111-6c45-be8c-f56e-719d5164e6e5
s 1
f 49/135/37 50/136/37 51/137/37 52/138/37
f 53/139/38 49/140/38 52/141/38 54/142/38
f 55/143/39 53/144/39 54/145/39 56/146/39
f 50/147/40 55/148/40 56/149/40 51/150/40
f 56/151/41 54/152/41 52/153/41 51/154/41
f 50/155/42 49/156/42 53/157/42 55/158/42
o cube.007
v 0.500000 1.750000 -0.500000
v 0.500000 1.750000 0.500000
v 0.500000 1.187500 0.500000
v 0.500000 1.187500 -0.500000
v -0.500000 1.187500 0.500000
v -0.500000 1.750000 0.500000
v -0.500000 1.750000 -0.500000
v -0.500000 1.187500 -0.500000
vt 0.500000 0.500000
vt 0.000000 0.500000
vt 0.000000 0.218750
vt 0.500000 0.218750
vt 0.500000 0.218750
vt 0.500000 0.500000
vt 0.000000 0.500000
vt 0.000000 0.218750
vt 0.000000 1.000000
vt 0.500000 1.000000
vt 0.000000 0.500000
vt 0.500000 0.500000
vt 0.500000 1.000000
vt 0.000000 1.000000
vt 1.000000 0.218750
vt 1.000000 0.500000
vt 1.000000 0.500000
vt 1.000000 0.218750
vn 1.0000 0.0000 0.0000
vn -1.0000 0.0000 0.0000
vn 0.0000 1.0000 0.0000
vn 0.0000 -1.0000 -0.0000
vn 0.0000 -0.0000 1.0000
vn 0.0000 0.0000 -1.0000
usemtl m_e0a81897-08c6-3228-7418-bae80b87ceca
s 1
f 57/159/43 58/160/43 59/161/43 60/162/43
f 61/163/44 62/164/44 63/165/44 64/166/44
f 62/167/45 58/160/45 57/159/45 63/168/45
f 60/169/46 59/170/46 61/171/46 64/172/46
f 59/173/47 58/174/47 62/164/47 61/163/47
f 63/175/48 57/159/48 60/162/48 64/176/48
